<svg width="1400" height="860" viewBox="0 0 1400 860" fill="none" xmlns="http://www.w3.org/2000/svg">
  <rect width="1400" height="860" fill="#F8FAFC"/>

  <g fill="#6B7280" font-family="Inter, sans-serif" font-size="14" font-weight="600" text-anchor="middle">
    <text x="200" y="64">Data Sources</text>
    <text x="580" y="64">AI Reasoning</text>
    <text x="960" y="64">Actions</text>
  </g>

  <g stroke="#D1D5DB" stroke-width="2" stroke-linecap="round">
    <path d="M320 180H470"/>
    <path d="M700 180H850"/>

    <path d="M320 420H470"/>
    <path d="M700 420H850"/>

    <path d="M320 660H470"/>
    <path d="M700 660H850"/>

    <path d="M580 240V360"/>
    <path d="M580 480V600"/>
  </g>

  <g fill="#9CA3AF">
    <path d="M466 174L476 180L466 186V174Z"/>
    <path d="M846 174L856 180L846 186V174Z"/>

    <path d="M466 414L476 420L466 426V414Z"/>
    <path d="M846 414L856 420L846 426V414Z"/>

    <path d="M466 654L476 660L466 666V654Z"/>
    <path d="M846 654L856 660L846 666V654Z"/>

    <path d="M574 356L580 366L586 356H574Z"/>
    <path d="M574 596L580 606L586 596H574Z"/>
  </g>

  <g fill="#FFFFFF" stroke="#E5E7EB" stroke-width="2">
    <rect x="80" y="110" width="240" height="140" rx="18"/>
    <rect x="80" y="350" width="240" height="140" rx="18"/>
    <rect x="80" y="590" width="240" height="140" rx="18"/>

    <rect x="470" y="110" width="230" height="140" rx="18"/>
    <rect x="470" y="350" width="230" height="140" rx="18"/>
    <rect x="470" y="590" width="230" height="140" rx="18"/>

    <rect x="850" y="110" width="240" height="140" rx="18"/>
    <rect x="850" y="350" width="240" height="140" rx="18"/>
    <rect x="850" y="590" width="240" height="140" rx="18"/>
  </g>

  <g fill="#6B7280" font-family="Inter, sans-serif" font-size="18" font-weight="600" text-anchor="middle" dominant-baseline="middle">
    <text x="200" y="165">CRM Leads</text>
    <text x="200" y="405">Support Tickets</text>
    <text x="200" y="645">Finance Records</text>

    <text x="585" y="165">Classify</text>
    <text x="585" y="405">Reason &amp; Route</text>
    <text x="585" y="645">Validate</text>

    <text x="970" y="165">Sales Tasks</text>
    <text x="970" y="405">Draft Replies</text>
    <text x="970" y="645">Risk Alerts</text>
  </g>

  <g fill="#9CA3AF" font-family="Inter, sans-serif" font-size="13" text-anchor="middle" dominant-baseline="middle">
    <text x="200" y="195">web forms · inbound chat</text>
    <text x="200" y="435">email · help desk</text>
    <text x="200" y="675">invoice · payment log</text>

    <text x="585" y="195">priority scoring</text>
    <text x="585" y="435">context retrieval + policy</text>
    <text x="585" y="675">rules + confidence checks</text>

    <text x="970" y="195">assign owner + next step</text>
    <text x="970" y="435">response draft + escalate</text>
    <text x="970" y="675">notify team + create ticket</text>
  </g>
</svg>
