<svg width="1200" height="720" viewBox="0 0 1200 720" fill="none" xmlns="http://www.w3.org/2000/svg">
  <rect width="1200" height="720" fill="#F9FAFB"/>

  <g stroke="#D1D5DB" stroke-width="2">
    <path d="M270 170H430"/>
    <path d="M620 170H780"/>
    <path d="M270 360H430"/>
    <path d="M620 360H780"/>
    <path d="M270 550H430"/>
    <path d="M620 550H780"/>
    <path d="M525 220V300"/>
    <path d="M525 410V490"/>
  </g>

  <g>
    <rect x="80" y="120" width="190" height="100" rx="16" fill="#FFFFFF" stroke="#E5E7EB"/>
    <rect x="80" y="310" width="190" height="100" rx="16" fill="#FFFFFF" stroke="#E5E7EB"/>
    <rect x="80" y="500" width="190" height="100" rx="16" fill="#FFFFFF" stroke="#E5E7EB"/>

    <rect x="430" y="120" width="190" height="100" rx="16" fill="#FFFFFF" stroke="#D1D5DB"/>
    <rect x="430" y="310" width="190" height="100" rx="16" fill="#FFFFFF" stroke="#D1D5DB"/>
    <rect x="430" y="500" width="190" height="100" rx="16" fill="#FFFFFF" stroke="#D1D5DB"/>

    <rect x="780" y="120" width="190" height="100" rx="16" fill="#FFFFFF" stroke="#E5E7EB"/>
    <rect x="780" y="310" width="190" height="100" rx="16" fill="#FFFFFF" stroke="#E5E7EB"/>
    <rect x="780" y="500" width="190" height="100" rx="16" fill="#FFFFFF" stroke="#E5E7EB"/>
  </g>

  <g fill="#6B7280" font-family="Inter, sans-serif" font-size="18" font-weight="600" text-anchor="middle" dominant-baseline="middle">
    <text x="175" y="170">Data</text>
    <text x="175" y="360">Events</text>
    <text x="175" y="550">Inputs</text>

    <text x="525" y="170">AI Reasoning</text>
    <text x="525" y="360">Workflow Logic</text>
    <text x="525" y="550">Rules</text>

    <text x="875" y="170">Actions</text>
    <text x="875" y="360">Tools</text>
    <text x="875" y="550">Outcomes</text>
  </g>

  <g fill="#9CA3AF" font-family="Inter, sans-serif" font-size="13" text-anchor="middle" dominant-baseline="middle">
    <text x="525" y="194">Classify · Route · Decide</text>
    <text x="525" y="384">Compose · Validate · Execute</text>
    <text x="525" y="574">Observe · Improve · Repeat</text>
  </g>
</svg>
